<svg width="116" height="16" viewBox="0 0 116 16" fill="none" xmlns="http://www.w3.org/2000/svg">
<path d="M10.7818 0.238037V7.54103L10.8772 12.5915L0.954143 0.238037H0V15.4724H1.52663V7.71887L1.47892 3.21377L11.402 15.4724H12.3204V0.238037H10.7818Z" fill="white"/>
<path d="M24.2472 14.2869C28.4096 14.3462 30.461 11.1571 30.461 7.88493C30.461 4.50611 28.4215 1.35254 24.2472 1.42368C20.1324 1.35254 17.9379 4.34013 18.0094 7.88493C18.0691 11.2045 20.0489 14.358 24.2472 14.2869ZM31.9996 7.89679C31.9996 11.8802 29.4115 15.7926 24.2472 15.7333C19.0351 15.8044 16.4709 11.8565 16.4709 7.87308C16.4709 3.60509 19.2737 -0.0701174 24.2472 0.00101569C29.4353 -0.0701174 31.9996 3.86591 31.9996 7.89679Z" fill="white"/>
<path d="M47.1586 0.238037L41.553 13.8363L35.8639 0.238037H34.1823L40.7062 15.5079H42.4117L48.8641 0.238037H47.1586Z" fill="white"/>
<path d="M55.3284 0.238037L48.4467 15.4724H50.0687L56.0917 1.88595L62.1148 15.4724H63.7368L56.855 0.238037H55.3284Z" fill="white"/>
<path d="M79.182 13.3979C77.6077 14.9629 75.6755 15.7097 73.6003 15.7097C68.3048 15.7097 65.6332 12.1887 65.6332 7.94439C65.6332 3.7831 68.2571 0.0249023 73.6003 0.0249023C75.6398 0.0249023 77.6912 0.748088 79.027 2.31302L78.0848 3.2496C76.8324 2.02849 75.2581 1.42385 73.6003 1.42385C69.3305 1.42385 67.1598 4.55371 67.1598 7.93253C67.1598 11.501 69.3305 14.3108 73.6003 14.3108C75.2581 14.3108 76.9756 13.6587 78.1921 12.4376L79.182 13.3979Z" fill="white"/>
<path d="M89.4986 14.2869C93.6611 14.3462 95.7125 11.1571 95.7125 7.88493C95.7125 4.50611 93.673 1.35254 89.4986 1.42368C85.3839 1.35254 83.1894 4.34013 83.2609 7.88493C83.3206 11.2045 85.2885 14.358 89.4986 14.2869ZM97.2391 7.89679C97.2391 11.8802 94.651 15.7926 89.4867 15.7333C84.2747 15.8044 81.7104 11.8565 81.7104 7.87308C81.7104 3.60509 84.5132 -0.0701174 89.4867 0.00101569C94.6868 -0.0701174 97.2391 3.86591 97.2391 7.89679Z" fill="white"/>
<path d="M114.08 0.238037L108.534 8.63174L102.94 0.238037H101.056V15.4724H102.582V2.37203L108.319 10.8369H108.76L114.473 2.47873V15.4724H116V0.238037H114.08Z" fill="white"/>
</svg>
